<?xml version="1.0" encoding="UTF-8"?>
<!DOCTYPE svg PUBLIC "-//W3C//DTD SVG 1.1//EN" "http://www.w3.org/Graphics/SVG/1.1/DTD/svg11.dtd">
<svg xmlns="http://www.w3.org/2000/svg" version="1.1" width="100px" height="100px" style="shape-rendering:geometricPrecision; text-rendering:geometricPrecision; image-rendering:optimizeQuality; fill-rule:evenodd; clip-rule:evenodd" xmlns:xlink="http://www.w3.org/1999/xlink">
<g><path style="opacity:1" fill="#79192a" d="M -0.5,-0.5 C 32.8333,-0.5 66.1667,-0.5 99.5,-0.5C 99.5,32.8333 99.5,66.1667 99.5,99.5C 66.1667,99.5 32.8333,99.5 -0.5,99.5C -0.5,66.1667 -0.5,32.8333 -0.5,-0.5 Z"/></g>
<g><path style="opacity:1" fill="#c28c91" d="M 50.5,35.5 C 54.6344,34.5151 58.9677,34.1818 63.5,34.5C 63.6495,35.552 63.4828,36.552 63,37.5C 61.4443,35.3652 59.6109,35.0319 57.5,36.5C 56.7648,39.2469 56.0981,42.5802 55.5,46.5C 55.8226,42.774 55.4892,39.1073 54.5,35.5C 53.5224,35.9767 52.6891,36.6433 52,37.5C 51.7216,36.5842 51.2216,35.9175 50.5,35.5 Z"/></g>
<g><path style="opacity:1" fill="#d99ea5" d="M 86.5,36.5 C 86.1667,36.5 85.8333,36.5 85.5,36.5C 85.1667,35.1667 84.8333,35.1667 84.5,36.5C 82.7141,37.554 80.3807,37.554 77.5,36.5C 76.7648,39.2469 76.0981,42.5802 75.5,46.5C 75.5,42.8333 75.5,39.1667 75.5,35.5C 73.8333,35.5 72.1667,35.5 70.5,35.5C 69.8333,51.5 69.1667,51.5 68.5,35.5C 67.209,35.2627 66.209,35.596 65.5,36.5C 64.9569,36.44 64.6236,36.1067 64.5,35.5C 73.4754,34.5018 82.4754,34.1685 91.5,34.5C 91.6495,35.552 91.4828,36.552 91,37.5C 89.6534,35.5339 88.1534,35.2006 86.5,36.5 Z"/></g>
<g><path style="opacity:1" fill="#f5dcde" d="M 85.5,36.5 C 85.5,37.8333 85.5,39.1667 85.5,40.5C 87.1439,40.7135 88.6439,40.3802 90,39.5C 90.6667,40.5 90.6667,41.5 90,42.5C 88.6439,41.6198 87.1439,41.2865 85.5,41.5C 85.5,43.1667 85.5,44.8333 85.5,46.5C 87.5273,46.3379 89.5273,46.5045 91.5,47C 88.8333,47.6667 86.1667,47.6667 83.5,47C 84.4558,43.6064 84.7892,40.1064 84.5,36.5C 84.8333,35.1667 85.1667,35.1667 85.5,36.5 Z"/></g>
<g><path style="opacity:1" fill="#bc7885" d="M 7.5,35.5 C 8.60093,34.4017 9.93426,34.235 11.5,35C 10.5399,38.73 10.2065,42.5633 10.5,46.5C 9.83333,42.8333 9.16667,39.1667 8.5,35.5C 8.16667,35.5 7.83333,35.5 7.5,35.5 Z"/></g>
<g><path style="opacity:1" fill="#7f2c39" d="M 46.5,34.5 C 47.4822,35.1408 48.4822,35.8075 49.5,36.5C 50.1067,36.3764 50.44,36.0431 50.5,35.5C 51.2216,35.9175 51.7216,36.5842 52,37.5C 52.6891,36.6433 53.5224,35.9767 54.5,35.5C 55.4892,39.1073 55.8226,42.774 55.5,46.5C 63.774,47.3817 64.4406,47.3817 57.5,46.5C 57.5,44.8333 57.5,43.1667 57.5,41.5C 59.2915,41.366 60.9582,41.6993 62.5,42.5C 63.1667,44.5 63.8333,46.5 64.5,48.5C 65.552,48.6495 66.552,48.4828 67.5,48C 66.2943,44.8882 66.2943,41.7216 67.5,38.5C 67.2528,37.2867 66.5862,36.62 65.5,36.5C 66.209,35.596 67.209,35.2627 68.5,35.5C 69.1667,51.5 69.8333,51.5 70.5,35.5C 72.1667,35.5 73.8333,35.5 75.5,35.5C 75.5,39.1667 75.5,42.8333 75.5,46.5C 75.56,47.0431 75.8933,47.3764 76.5,47.5C 77.4892,43.8927 77.8226,40.226 77.5,36.5C 80.3807,37.554 82.7141,37.554 84.5,36.5C 84.7892,40.1064 84.4558,43.6064 83.5,47C 86.1667,47.6667 88.8333,47.6667 91.5,47C 89.5273,46.5045 87.5273,46.3379 85.5,46.5C 85.5,44.8333 85.5,43.1667 85.5,41.5C 87.1439,41.2865 88.6439,41.6198 90,42.5C 90.6667,41.5 90.6667,40.5 90,39.5C 88.6439,40.3802 87.1439,40.7135 85.5,40.5C 85.5,39.1667 85.5,37.8333 85.5,36.5C 85.8333,36.5 86.1667,36.5 86.5,36.5C 87.8409,38.12 89.6742,39.12 92,39.5C 92.0006,42.687 92.8339,45.5203 94.5,48C 93.09,48.3678 92.09,49.2011 91.5,50.5C 77.5119,51.3328 63.5119,51.8328 49.5,52C 49.1667,52.3333 48.8333,52.6667 48.5,53C 50.4771,55.0429 51.4771,57.5429 51.5,60.5C 52.5,60.5 53.5,60.5 54.5,60.5C 54.5,58.1667 54.5,55.8333 54.5,53.5C 56.7354,53.2053 58.7354,53.5386 60.5,54.5C 58.8333,54.5 57.1667,54.5 55.5,54.5C 55.5,57.5 55.5,60.5 55.5,63.5C 54.4427,64.206 54.7761,64.5393 56.5,64.5C 55.3064,65.7773 53.6397,66.4439 51.5,66.5C 44.4762,66.0656 37.4762,65.7323 30.5,65.5C 25.1888,68.2097 20.5222,67.2097 16.5,62.5C 18.1733,60.4775 18.8399,58.1441 18.5,55.5C 19.5,55.5 20.5,55.5 21.5,55.5C 18.9055,62.5699 21.2388,65.2366 28.5,63.5C 26.3498,63.85 24.1831,63.1834 22,61.5C 21.5099,59.4546 21.6765,57.4546 22.5,55.5C 24.4672,55.2606 26.3005,55.5939 28,56.5C 28.4643,55.9056 28.631,55.2389 28.5,54.5C 29.1667,54.5 29.8333,54.5 30.5,54.5C 27.4603,59.0475 28.4603,62.3808 33.5,64.5C 34.4164,64.4573 35.0831,64.1239 35.5,63.5C 36.4959,63.5858 37.3292,63.2524 38,62.5C 38.4955,60.5273 38.6621,58.5273 38.5,56.5C 39.404,55.791 39.7373,54.791 39.5,53.5C 40.9778,53.762 42.3112,53.4287 43.5,52.5C 31.1847,51.501 18.8513,51.1676 6.5,51.5C 6.17859,45.9738 6.51192,40.6405 7.5,35.5C 7.83333,35.5 8.16667,35.5 8.5,35.5C 8.79347,39.4367 8.46014,43.27 7.5,47C 8.83333,47.1667 10.1667,47.3333 11.5,47.5C 13.3328,47.4146 14.6661,46.7479 15.5,45.5C 16.6603,42.8672 18.6603,42.0339 21.5,43C 22.3802,44.3561 22.7135,45.8561 22.5,47.5C 23.791,47.7373 24.791,47.404 25.5,46.5C 26.1667,46.5 26.8333,46.5 27.5,46.5C 27.56,47.0431 27.8933,47.3764 28.5,47.5C 29.4656,45.604 29.7989,43.604 29.5,41.5C 34.8333,41.1667 34.8333,40.8333 29.5,40.5C 29.5,38.8333 29.5,37.1667 29.5,35.5C 30.9305,35.4208 32.2638,35.7542 33.5,36.5C 33.8333,36.1667 34.1667,35.8333 34.5,35.5C 33.675,34.6143 32.675,34.281 31.5,34.5C 34.3596,33.7561 37.3596,33.0894 40.5,32.5C 41.8013,33.4779 42.968,33.1445 44,31.5C 45.3102,32.1301 46.1435,33.1301 46.5,34.5 Z"/></g>
<g><path style="opacity:1" fill="#e6bdc3" d="M 46.5,34.5 C 46.5227,38.0214 47.856,40.0214 50.5,40.5C 49.0399,49.7411 47.8732,49.7411 47,40.5C 45.848,38.3513 44.348,36.518 42.5,35C 43.7932,34.51 45.1266,34.3433 46.5,34.5 Z"/></g>
<g><path style="opacity:1" fill="#fae0e7" d="M 8.5,35.5 C 9.16667,39.1667 9.83333,42.8333 10.5,46.5C 12.2915,46.634 13.9582,46.3007 15.5,45.5C 14.6661,46.7479 13.3328,47.4146 11.5,47.5C 10.1667,47.3333 8.83333,47.1667 7.5,47C 8.46014,43.27 8.79347,39.4367 8.5,35.5 Z"/></g>
<g><path style="opacity:1" fill="#d3a9ac" d="M 35.5,43.5 C 36.0922,40.3093 37.2589,37.3093 39,34.5C 40.8374,38.6838 42.6707,42.8505 44.5,47C 43.552,47.4828 42.552,47.6495 41.5,47.5C 41.5,46.1667 41.5,44.8333 41.5,43.5C 39.5,43.5 37.5,43.5 35.5,43.5 Z"/></g>
<g><path style="opacity:1" fill="#6b212f" d="M 38.5,38.5 C 39.7759,39.3864 39.7759,40.3864 38.5,41.5C 37.4376,40.5754 37.4376,39.5754 38.5,38.5 Z"/></g>
<g><path style="opacity:1" fill="#e0bdbe" d="M 31.5,34.5 C 32.675,34.281 33.675,34.6143 34.5,35.5C 34.1667,35.8333 33.8333,36.1667 33.5,36.5C 32.2638,35.7542 30.9305,35.4208 29.5,35.5C 29.5,37.1667 29.5,38.8333 29.5,40.5C 34.8333,40.8333 34.8333,41.1667 29.5,41.5C 29.7989,43.604 29.4656,45.604 28.5,47.5C 27.8933,47.3764 27.56,47.0431 27.5,46.5C 27.7935,42.5633 27.4601,38.73 26.5,35C 28.1341,34.5065 29.8008,34.3398 31.5,34.5 Z"/></g>
<g><path style="opacity:1" fill="#f9e0e2" d="M 57.5,36.5 C 57.5,37.8333 57.5,39.1667 57.5,40.5C 59.1439,40.7135 60.6439,40.3802 62,39.5C 62.4828,40.448 62.6495,41.448 62.5,42.5C 60.9582,41.6993 59.2915,41.366 57.5,41.5C 57.5,43.1667 57.5,44.8333 57.5,46.5C 64.4406,47.3817 63.774,47.3817 55.5,46.5C 56.0981,42.5802 56.7648,39.2469 57.5,36.5 Z"/></g>
<g><path style="opacity:1" fill="#dfb4b7" d="M 25.5,46.5 C 24.791,47.404 23.791,47.7373 22.5,47.5C 22.7135,45.8561 22.3802,44.3561 21.5,43C 18.6603,42.0339 16.6603,42.8672 15.5,45.5C 16.4281,41.6379 17.9281,37.9712 20,34.5C 21.6086,38.71 23.4419,42.71 25.5,46.5 Z"/></g>
<g><path style="opacity:1" fill="#fdf3f2" d="M 77.5,36.5 C 77.8226,40.226 77.4892,43.8927 76.5,47.5C 75.8933,47.3764 75.56,47.0431 75.5,46.5C 76.0981,42.5802 76.7648,39.2469 77.5,36.5 Z"/></g>
<g><path style="opacity:1" fill="#ddb9ba" d="M 35.5,43.5 C 35.762,44.9778 35.4287,46.3112 34.5,47.5C 33.5788,45.9686 33.9122,44.6353 35.5,43.5 Z"/></g>
<g><path style="opacity:1" fill="#bc838a" d="M 70.5,53.5 C 70.6495,54.552 70.4828,55.552 70,56.5C 68.3005,55.5939 66.4672,55.2606 64.5,55.5C 65.9899,53.7202 67.9899,53.0535 70.5,53.5 Z"/></g>
<g><path style="opacity:1" fill="#bc7e84" d="M 28.5,54.5 C 28.631,55.2389 28.4643,55.9056 28,56.5C 26.3005,55.5939 24.4672,55.2606 22.5,55.5C 23.1342,54.0532 24.3009,53.3866 26,53.5C 27.0698,53.528 27.9032,53.8614 28.5,54.5 Z"/></g>
<g><path style="opacity:1" fill="#f6dee2" d="M 60.5,54.5 C 59.4324,55.4345 58.099,55.7678 56.5,55.5C 56.5,56.5 56.5,57.5 56.5,58.5C 59.517,58.5563 59.8503,58.8897 57.5,59.5C 56.8333,60.8333 56.1667,62.1667 55.5,63.5C 55.5,60.5 55.5,57.5 55.5,54.5C 57.1667,54.5 58.8333,54.5 60.5,54.5 Z"/></g>
<g><path style="opacity:1" fill="#e2b0b6" d="M 38.5,56.5 C 38.6621,58.5273 38.4955,60.5273 38,62.5C 37.3292,63.2524 36.4959,63.5858 35.5,63.5C 35.0831,64.1239 34.4164,64.4573 33.5,64.5C 28.4603,62.3808 27.4603,59.0475 30.5,54.5C 33.7617,52.9225 36.4284,53.5892 38.5,56.5 Z"/></g>
<g><path style="opacity:1" fill="#792130" d="M 35.5,63.5 C 30.7376,62.9075 29.4043,60.4075 31.5,56C 37.7984,55.5046 39.1318,58.0046 35.5,63.5 Z"/></g>
<g><path style="opacity:1" fill="#ebb5bc" d="M 21.5,55.5 C 21.8333,55.5 22.1667,55.5 22.5,55.5C 21.6765,57.4546 21.5099,59.4546 22,61.5C 24.1831,63.1834 26.3498,63.85 28.5,63.5C 21.2388,65.2366 18.9055,62.5699 21.5,55.5 Z"/></g>
<g><path style="opacity:1" fill="#d29fa7" d="M 46.5,63.5 C 47.166,60.6417 47.8326,57.6417 48.5,54.5C 49.48,57.0865 49.8134,59.7531 49.5,62.5C 50.8734,62.3433 52.2068,62.51 53.5,63C 51.1806,64.7279 48.8473,64.8946 46.5,63.5 Z"/></g>
<g><path style="opacity:1" fill="#d69ca5" d="M 46.5,63.5 C 44.2625,64.5366 41.9291,64.7033 39.5,64C 40.2883,60.9243 40.7883,57.7577 41,54.5C 41.4974,57.146 41.6641,59.8127 41.5,62.5C 43.1439,62.7135 44.6439,62.3802 46,61.5C 46.4643,62.0944 46.631,62.7611 46.5,63.5 Z"/></g>
<g><path style="opacity:1" fill="#bf7985" d="M 57.5,59.5 C 57.5,60.5 57.5,61.5 57.5,62.5C 58.8221,62.67 59.9887,62.3366 61,61.5C 61.4643,62.0944 61.631,62.7611 61.5,63.5C 59.9582,64.3007 58.2915,64.634 56.5,64.5C 54.7761,64.5393 54.4427,64.206 55.5,63.5C 56.1667,62.1667 56.8333,60.8333 57.5,59.5 Z"/></g>
<g><path style="opacity:1" fill="#752532" d="M 70.5,53.5 C 73.5,53.5 76.5,53.5 79.5,53.5C 79.8256,57.8839 79.4922,62.2172 78.5,66.5C 73.1095,66.4714 67.4428,66.4714 61.5,66.5C 61.5,65.5 61.5,64.5 61.5,63.5C 61.631,62.7611 61.4643,62.0944 61,61.5C 59.9887,62.3366 58.8221,62.67 57.5,62.5C 57.5,61.5 57.5,60.5 57.5,59.5C 59.8503,58.8897 59.517,58.5563 56.5,58.5C 56.5,57.5 56.5,56.5 56.5,55.5C 58.099,55.7678 59.4324,55.4345 60.5,54.5C 61.7079,55.2341 63.0413,55.5674 64.5,55.5C 66.4672,55.2606 68.3005,55.5939 70,56.5C 70.4828,55.552 70.6495,54.552 70.5,53.5 Z"/></g>
<g><path style="opacity:1" fill="#d897a1" d="M 72.5,54.5 C 74.604,54.2011 76.604,54.5344 78.5,55.5C 77.4425,55.9059 76.1092,55.9059 74.5,55.5C 74.5,56.5 74.5,57.5 74.5,58.5C 78.5,58.8333 78.5,59.1667 74.5,59.5C 74.5,60.5 74.5,61.5 74.5,62.5C 75.9778,62.238 77.3112,62.5713 78.5,63.5C 76.2351,64.6474 73.9018,64.8141 71.5,64C 72.4505,60.9433 72.7839,57.7766 72.5,54.5 Z"/></g>
<g><path style="opacity:1" fill="#ebabb6" d="M 62.5,56.5 C 62.654,59.8585 64.3206,62.1919 67.5,63.5C 68.1667,62.5 68.8333,61.5 69.5,60.5C 70.9483,62.8077 70.2817,64.141 67.5,64.5C 63.0096,63.7499 61.343,61.0832 62.5,56.5 Z"/></g>
</svg>
