<?xml version="1.0" encoding="UTF-8"?>
<!DOCTYPE svg PUBLIC "-//W3C//DTD SVG 1.1//EN" "http://www.w3.org/Graphics/SVG/1.1/DTD/svg11.dtd">
<svg xmlns="http://www.w3.org/2000/svg" version="1.1" width="220px" height="220px" style="shape-rendering:geometricPrecision; text-rendering:geometricPrecision; image-rendering:optimizeQuality; fill-rule:evenodd; clip-rule:evenodd" xmlns:xlink="http://www.w3.org/1999/xlink">
<g><path style="opacity:1" fill="#fefefe" d="M -0.5,-0.5 C 72.8333,-0.5 146.167,-0.5 219.5,-0.5C 219.5,72.8333 219.5,146.167 219.5,219.5C 146.167,219.5 72.8333,219.5 -0.5,219.5C -0.5,146.167 -0.5,72.8333 -0.5,-0.5 Z"/></g>
<g><path style="opacity:1" fill="#3d4246" d="M 146.5,17.5 C 134.549,13.2304 122.215,11.2304 109.5,11.5C 104.415,11.531 99.5822,12.1977 95,13.5C 94.1074,12.9186 93.1074,12.5852 92,12.5C 88.8105,13.2175 85.9771,14.5508 83.5,16.5C 85.0544,15.1054 84.721,14.4387 82.5,14.5C 79.8702,15.3779 77.2035,16.0445 74.5,16.5C 92.8879,9.16082 111.888,7.66082 131.5,12C 136.857,13.1711 141.857,15.0044 146.5,17.5 Z"/></g>
<g><path style="opacity:1" fill="#92c3de" d="M 146.5,17.5 C 148.25,18.4732 149.75,19.8065 151,21.5C 151.671,20.7476 152.504,20.4142 153.5,20.5C 155.153,20.6596 156.486,21.3263 157.5,22.5C 157.973,23.9063 158.973,24.573 160.5,24.5C 161.492,24.3284 162.158,24.6618 162.5,25.5C 162.973,26.9063 163.973,27.573 165.5,27.5C 165.973,28.9063 166.973,29.573 168.5,29.5C 169.865,31.8598 171.865,33.5265 174.5,34.5C 176.785,37.4518 179.452,40.1185 182.5,42.5C 183.419,45.0892 185.086,47.0892 187.5,48.5C 187.738,50.4044 188.738,51.7377 190.5,52.5C 190.427,54.0269 191.094,55.0269 192.5,55.5C 192.427,57.0269 193.094,58.0269 194.5,58.5C 195.992,62.8178 197.992,66.8178 200.5,70.5C 200.402,72.5529 201.069,74.2196 202.5,75.5C 202.433,77.4008 202.767,79.2341 203.5,81C 203.167,81.5 202.833,82 202.5,82.5C 202.004,80.6021 201.337,79.6021 200.5,79.5C 199.662,79.1583 199.328,78.4916 199.5,77.5C 198.068,75.3451 196.901,73.0118 196,70.5C 195.79,71.8029 195.957,73.1362 196.5,74.5C 196.182,75.6473 195.516,76.4806 194.5,77C 188.853,79.1084 183.187,80.7751 177.5,82C 178.823,81.1841 179.489,80.0174 179.5,78.5C 182.152,74.5181 185.152,70.8514 188.5,67.5C 189.552,67.6495 190.552,67.4828 191.5,67C 190.186,66.015 189.186,64.8484 188.5,63.5C 187.29,63.0679 186.29,62.4013 185.5,61.5C 184.181,59.2195 182.515,57.2195 180.5,55.5C 180.158,54.6618 179.492,54.3284 178.5,54.5C 176.195,53.6771 174.195,52.3437 172.5,50.5C 171.833,50.5 171.5,50.1667 171.5,49.5C 168.784,48.3659 166.118,47.0325 163.5,45.5C 161.155,42.925 158.155,41.925 154.5,42.5C 153.5,42.1667 152.833,41.5 152.5,40.5C 150.626,39.7148 148.626,39.0482 146.5,38.5C 145.102,36.4672 143.102,35.4672 140.5,35.5C 138.97,35.6399 137.97,36.3065 137.5,37.5C 137.167,37.5 136.833,37.5 136.5,37.5C 136.443,36.391 136.11,35.391 135.5,34.5C 133.343,33.5933 131.01,32.9267 128.5,32.5C 126.285,31.7321 123.952,31.0654 121.5,30.5C 120.508,30.6716 119.842,30.3382 119.5,29.5C 117.622,28.7924 115.955,27.6257 114.5,26C 112.866,25.5065 111.199,25.3398 109.5,25.5C 108.5,24.5 107.5,23.5 106.5,22.5C 104.091,19.4557 101.091,17.1223 97.5,15.5C 91.9297,17.7857 86.263,19.7857 80.5,21.5C 78.3023,21.5912 77.9689,20.9245 79.5,19.5C 80.2623,17.7376 81.5956,16.7376 83.5,16.5C 85.9771,14.5508 88.8105,13.2175 92,12.5C 93.1074,12.5852 94.1074,12.9186 95,13.5C 99.5822,12.1977 104.415,11.531 109.5,11.5C 122.215,11.2304 134.549,13.2304 146.5,17.5 Z"/></g>
<g><path style="opacity:1" fill="#e9e9e9" d="M 83.5,16.5 C 81.5956,16.7376 80.2623,17.7376 79.5,19.5C 76.6298,20.4333 74.2964,22.1 72.5,24.5C 67.7156,28.399 62.7156,32.0657 57.5,35.5C 54.5726,36.7573 52.2393,38.7573 50.5,41.5C 50.5,42.8333 49.8333,43.5 48.5,43.5C 46.4131,44.5846 45.0798,46.2512 44.5,48.5C 42.1829,52.1464 39.5162,55.4797 36.5,58.5C 30.8714,62.4608 25.8714,67.1275 21.5,72.5C 20.8333,72.1667 20.1667,71.8333 19.5,71.5C 19.8333,69.5 20.1667,67.5 20.5,65.5C 20.6596,63.847 21.3263,62.5137 22.5,61.5C 23.9063,61.0269 24.573,60.0269 24.5,58.5C 24.3284,57.5084 24.6618,56.8417 25.5,56.5C 26.9063,56.0269 27.573,55.0269 27.5,53.5C 29.5869,52.4154 30.9202,50.7488 31.5,48.5C 32.9063,48.0269 33.573,47.0269 33.5,45.5C 36.5,41.8333 39.8333,38.5 43.5,35.5C 46.0892,34.5806 48.0892,32.914 49.5,30.5C 51.4044,30.2624 52.7377,29.2624 53.5,27.5C 55.0269,27.573 56.0269,26.9063 56.5,25.5C 58.0269,25.573 59.0269,24.9063 59.5,23.5C 62.5154,21.3256 65.8487,19.6589 69.5,18.5C 71.5529,18.5979 73.2196,17.9313 74.5,16.5C 77.2035,16.0445 79.8702,15.3779 82.5,14.5C 84.721,14.4387 85.0544,15.1054 83.5,16.5 Z"/></g>
<g><path style="opacity:1" fill="#fefdfd" d="M 97.5,15.5 C 98.1098,16.391 98.4431,17.391 98.5,18.5C 92.5,23.8333 86.8333,29.5 81.5,35.5C 77.5,38.8333 73.8333,42.5 70.5,46.5C 68.4131,47.5846 67.0798,49.2512 66.5,51.5C 60.0196,57.7846 55.0196,65.118 51.5,73.5C 49.7376,74.2623 48.7376,75.5956 48.5,77.5C 46.8333,78.5 45.5,79.8333 44.5,81.5C 42.4131,82.5846 41.0798,84.2512 40.5,86.5C 39.1667,87.1667 38.1667,88.1667 37.5,89.5C 36.1667,89.5 34.8333,89.5 33.5,89.5C 33.0269,88.0937 32.0269,87.427 30.5,87.5C 30.6716,86.5084 30.3382,85.8417 29.5,85.5C 29.5,83.8333 29.5,82.1667 29.5,80.5C 30.1667,80.5 30.5,80.1667 30.5,79.5C 31.5778,76.5979 32.2444,73.5979 32.5,70.5C 33.404,69.791 33.7373,68.791 33.5,67.5C 35.0719,64.7846 36.0719,61.7846 36.5,58.5C 39.5162,55.4797 42.1829,52.1464 44.5,48.5C 46.5869,47.4154 47.9202,45.7488 48.5,43.5C 49.8333,43.5 50.5,42.8333 50.5,41.5C 53.4274,40.2427 55.7607,38.2427 57.5,35.5C 62.7156,32.0657 67.7156,28.399 72.5,24.5C 75.4432,24.0198 78.1098,23.0198 80.5,21.5C 86.263,19.7857 91.9297,17.7857 97.5,15.5 Z"/></g>
<g><path style="opacity:1" fill="#4d4d4d" d="M 74.5,16.5 C 73.2196,17.9313 71.5529,18.5979 69.5,18.5C 70.7804,17.0687 72.4471,16.4021 74.5,16.5 Z"/></g>
<g><path style="opacity:1" fill="#39464e" d="M 97.5,15.5 C 101.091,17.1223 104.091,19.4557 106.5,22.5C 104.833,23.1667 103.167,23.8333 101.5,24.5C 104.351,20.9568 103.351,18.9568 98.5,18.5C 98.4431,17.391 98.1098,16.391 97.5,15.5 Z"/></g>
<g><path style="opacity:1" fill="#89b4cb" d="M 98.5,18.5 C 103.351,18.9568 104.351,20.9568 101.5,24.5C 98.322,27.2583 94.6553,29.2583 90.5,30.5C 89.7611,30.631 89.0944,30.4643 88.5,30C 92.4385,26.5706 95.7719,22.7372 98.5,18.5 Z"/></g>
<g><path style="opacity:1" fill="#455660" d="M 146.5,17.5 C 149.241,17.7073 151.574,18.7073 153.5,20.5C 152.504,20.4142 151.671,20.7476 151,21.5C 149.75,19.8065 148.25,18.4732 146.5,17.5 Z"/></g>
<g><path style="opacity:1" fill="#39464e" d="M 79.5,19.5 C 77.9689,20.9245 78.3023,21.5912 80.5,21.5C 78.1098,23.0198 75.4432,24.0198 72.5,24.5C 74.2964,22.1 76.6298,20.4333 79.5,19.5 Z"/></g>
<g><path style="opacity:1" fill="#252729" d="M 157.5,22.5 C 159.027,22.427 160.027,23.0937 160.5,24.5C 158.973,24.573 157.973,23.9063 157.5,22.5 Z"/></g>
<g><path style="opacity:1" fill="#3f3f3f" d="M 59.5,23.5 C 59.0269,24.9063 58.0269,25.573 56.5,25.5C 56.9731,24.0937 57.9731,23.427 59.5,23.5 Z"/></g>
<g><path style="opacity:1" fill="#3f3f3f" d="M 56.5,25.5 C 56.0269,26.9063 55.0269,27.573 53.5,27.5C 53.9731,26.0937 54.9731,25.427 56.5,25.5 Z"/></g>
<g><path style="opacity:1" fill="#1a1c1d" d="M 162.5,25.5 C 164.027,25.427 165.027,26.0937 165.5,27.5C 163.973,27.573 162.973,26.9063 162.5,25.5 Z"/></g>
<g><path style="opacity:1" fill="#7ba0b3" d="M 109.5,26.5 C 113.286,25.9794 114.953,27.3127 114.5,30.5C 110.742,34.5922 106.409,37.9255 101.5,40.5C 100.662,40.1583 100.328,39.4916 100.5,38.5C 102.738,33.9289 105.738,29.9289 109.5,26.5 Z"/></g>
<g><path style="opacity:1" fill="#2d3b43" d="M 109.5,26.5 C 109.5,26.1667 109.5,25.8333 109.5,25.5C 111.199,25.3398 112.866,25.5065 114.5,26C 115.955,27.6257 117.622,28.7924 119.5,29.5C 117.784,29.6287 116.117,29.962 114.5,30.5C 114.953,27.3127 113.286,25.9794 109.5,26.5 Z"/></g>
<g><path style="opacity:1" fill="#4a4a4a" d="M 53.5,27.5 C 52.7377,29.2624 51.4044,30.2624 49.5,30.5C 50.2623,28.7376 51.5956,27.7376 53.5,27.5 Z"/></g>
<g><path style="opacity:1" fill="#1a1b1c" d="M 165.5,27.5 C 167.027,27.427 168.027,28.0937 168.5,29.5C 166.973,29.573 165.973,28.9063 165.5,27.5 Z"/></g>
<g><path style="opacity:1" fill="#f9f9f9" d="M 106.5,22.5 C 107.5,23.5 108.5,24.5 109.5,25.5C 109.5,25.8333 109.5,26.1667 109.5,26.5C 105.738,29.9289 102.738,33.9289 100.5,38.5C 98.1841,41.0946 95.8508,43.7613 93.5,46.5C 93.6667,46.8333 93.8333,47.1667 94,47.5C 96.3959,44.9334 98.8959,42.6 101.5,40.5C 106.409,37.9255 110.742,34.5922 114.5,30.5C 116.117,29.962 117.784,29.6287 119.5,29.5C 119.842,30.3382 120.508,30.6716 121.5,30.5C 121.5,31.5 121.5,32.5 121.5,33.5C 118.421,36.6505 116.087,40.3171 114.5,44.5C 112.187,46.8013 110.687,49.468 110,52.5C 112.664,51.0016 114.83,49.0016 116.5,46.5C 120.878,43.6409 124.878,40.3075 128.5,36.5C 130.558,35.0669 132.892,34.4003 135.5,34.5C 136.11,35.391 136.443,36.391 136.5,37.5C 134.562,41.0432 132.895,44.7099 131.5,48.5C 129.076,51.0078 127.41,54.0078 126.5,57.5C 117.18,69.1322 110.18,82.1322 105.5,96.5C 103.992,98.1815 102.992,100.181 102.5,102.5C 100,105.494 98.0002,108.827 96.5,112.5C 94.4427,114.856 91.776,115.856 88.5,115.5C 88.1583,114.662 87.4916,114.328 86.5,114.5C 86.5,112.833 86.5,111.167 86.5,109.5C 87.4614,107.735 87.7947,105.735 87.5,103.5C 87.665,100.15 87.4983,96.8168 87,93.5C 86.4867,94.5266 85.9867,95.5266 85.5,96.5C 82.331,100.833 79.6643,105.5 77.5,110.5C 75.283,111.369 72.9496,111.702 70.5,111.5C 70.1667,110.5 69.5,109.833 68.5,109.5C 68.5,107.833 68.5,106.167 68.5,104.5C 69.4345,103.432 69.7678,102.099 69.5,100.5C 69.3921,95.1301 69.7255,89.7968 70.5,84.5C 69.2632,85.9649 68.2632,87.6316 67.5,89.5C 64.1173,93.5526 61.1173,97.8859 58.5,102.5C 55.8707,103.714 53.204,103.714 50.5,102.5C 48.2663,98.7176 47.933,94.7176 49.5,90.5C 50.0508,87.1933 50.3841,83.8599 50.5,80.5C 51.3382,80.1583 51.6716,79.4916 51.5,78.5C 51.5,76.8333 51.5,75.1667 51.5,73.5C 55.0196,65.118 60.0196,57.7846 66.5,51.5C 68.5869,50.4154 69.9202,48.7488 70.5,46.5C 73.8333,42.5 77.5,38.8333 81.5,35.5C 84.9922,34.5903 87.9922,32.9236 90.5,30.5C 94.6553,29.2583 98.322,27.2583 101.5,24.5C 103.167,23.8333 104.833,23.1667 106.5,22.5 Z"/></g>
<g><path style="opacity:1" fill="#495b65" d="M 98.5,18.5 C 95.7719,22.7372 92.4385,26.5706 88.5,30C 89.0944,30.4643 89.7611,30.631 90.5,30.5C 87.9922,32.9236 84.9922,34.5903 81.5,35.5C 86.8333,29.5 92.5,23.8333 98.5,18.5 Z"/></g>
<g><path style="opacity:1" fill="#212a30" d="M 121.5,30.5 C 123.952,31.0654 126.285,31.7321 128.5,32.5C 126.05,32.298 123.717,32.6314 121.5,33.5C 121.5,32.5 121.5,31.5 121.5,30.5 Z"/></g>
<g><path style="opacity:1" fill="#272c2f" d="M 168.5,29.5 C 171.109,30.4431 173.109,32.1097 174.5,34.5C 171.865,33.5265 169.865,31.8598 168.5,29.5 Z"/></g>
<g><path style="opacity:1" fill="#6c6c6c" d="M 49.5,30.5 C 48.0892,32.914 46.0892,34.5806 43.5,35.5C 44.9108,33.086 46.9108,31.4194 49.5,30.5 Z"/></g>
<g><path style="opacity:1" fill="#85b0c8" d="M 128.5,32.5 C 129.833,33.8333 129.833,35.1667 128.5,36.5C 124.878,40.3075 120.878,43.6409 116.5,46.5C 115.167,46.5 114.5,45.8333 114.5,44.5C 116.087,40.3171 118.421,36.6505 121.5,33.5C 123.717,32.6314 126.05,32.298 128.5,32.5 Z"/></g>
<g><path style="opacity:1" fill="#3c4c56" d="M 128.5,32.5 C 131.01,32.9267 133.343,33.5933 135.5,34.5C 132.892,34.4003 130.558,35.0669 128.5,36.5C 129.833,35.1667 129.833,33.8333 128.5,32.5 Z"/></g>
<g><path style="opacity:1" fill="#4a4e50" d="M 174.5,34.5 C 178.188,36.1884 180.855,38.855 182.5,42.5C 179.452,40.1185 176.785,37.4518 174.5,34.5 Z"/></g>
<g><path style="opacity:1" fill="#28343b" d="M 146.5,38.5 C 143.596,36.6821 140.596,36.3488 137.5,37.5C 137.97,36.3065 138.97,35.6399 140.5,35.5C 143.102,35.4672 145.102,36.4672 146.5,38.5 Z"/></g>
<g><path style="opacity:1" fill="#84adc4" d="M 146.5,38.5 C 146.267,40.0618 145.6,41.3951 144.5,42.5C 140.798,46.2034 136.798,49.5367 132.5,52.5C 131.624,52.6309 130.957,52.2975 130.5,51.5C 131.127,50.5832 131.461,49.5832 131.5,48.5C 132.895,44.7099 134.562,41.0432 136.5,37.5C 136.833,37.5 137.167,37.5 137.5,37.5C 140.596,36.3488 143.596,36.6821 146.5,38.5 Z"/></g>
<g><path style="opacity:1" fill="#919191" d="M 57.5,35.5 C 55.7607,38.2427 53.4274,40.2427 50.5,41.5C 52.2393,38.7573 54.5726,36.7573 57.5,35.5 Z"/></g>
<g><path style="opacity:1" fill="#475258" d="M 100.5,38.5 C 100.328,39.4916 100.662,40.1583 101.5,40.5C 98.8959,42.6 96.3959,44.9334 94,47.5C 93.8333,47.1667 93.6667,46.8333 93.5,46.5C 95.8508,43.7613 98.1841,41.0946 100.5,38.5 Z"/></g>
<g><path style="opacity:1" fill="#515456" d="M 146.5,38.5 C 148.626,39.0482 150.626,39.7148 152.5,40.5C 149.549,40.2872 146.882,40.9539 144.5,42.5C 145.6,41.3951 146.267,40.0618 146.5,38.5 Z"/></g>
<g><path style="opacity:1" fill="#f3f3f3" d="M 152.5,40.5 C 152.833,41.5 153.5,42.1667 154.5,42.5C 154.5,42.8333 154.5,43.1667 154.5,43.5C 151.742,46.678 149.742,50.3447 148.5,54.5C 146,57.4937 144,60.827 142.5,64.5C 133.507,75.831 126.174,88.1643 120.5,101.5C 118.917,103.663 117.584,105.996 116.5,108.5C 114.076,111.008 112.41,114.008 111.5,117.5C 109.122,119.757 106.455,120.09 103.5,118.5C 103.5,117.167 103.5,115.833 103.5,114.5C 104.404,113.791 104.737,112.791 104.5,111.5C 104.613,106.482 104.947,101.482 105.5,96.5C 110.18,82.1322 117.18,69.1322 126.5,57.5C 129.109,56.5569 131.109,54.8903 132.5,52.5C 136.798,49.5367 140.798,46.2034 144.5,42.5C 146.882,40.9539 149.549,40.2872 152.5,40.5 Z"/></g>
<g><path style="opacity:1" fill="#29353c" d="M 154.5,43.5 C 154.5,43.1667 154.5,42.8333 154.5,42.5C 158.155,41.925 161.155,42.925 163.5,45.5C 160.692,44.0712 157.692,43.4045 154.5,43.5 Z"/></g>
<g><path style="opacity:1" fill="#8ab6ce" d="M 154.5,43.5 C 157.692,43.4045 160.692,44.0712 163.5,45.5C 163.833,46.8333 164.167,48.1667 164.5,49.5C 162.973,49.427 161.973,50.0937 161.5,51.5C 159.025,54.2411 156.025,56.2411 152.5,57.5C 151.167,57.5 149.833,57.5 148.5,57.5C 148.5,56.5 148.5,55.5 148.5,54.5C 149.742,50.3447 151.742,46.678 154.5,43.5 Z"/></g>
<g><path style="opacity:1" fill="#444444" d="M 33.5,45.5 C 33.573,47.0269 32.9063,48.0269 31.5,48.5C 31.427,46.9731 32.0937,45.9731 33.5,45.5 Z"/></g>
<g><path style="opacity:1" fill="#858585" d="M 48.5,43.5 C 47.9202,45.7488 46.5869,47.4154 44.5,48.5C 45.0798,46.2512 46.4131,44.5846 48.5,43.5 Z"/></g>
<g><path style="opacity:1" fill="#4a5d66" d="M 114.5,44.5 C 114.5,45.8333 115.167,46.5 116.5,46.5C 114.83,49.0016 112.664,51.0016 110,52.5C 110.687,49.468 112.187,46.8013 114.5,44.5 Z"/></g>
<g><path style="opacity:1" fill="#272f34" d="M 182.5,42.5 C 184.914,43.9108 186.581,45.9108 187.5,48.5C 185.086,47.0892 183.419,45.0892 182.5,42.5 Z"/></g>
<g><path style="opacity:1" fill="#51616a" d="M 163.5,45.5 C 166.118,47.0325 168.784,48.3659 171.5,49.5C 169.167,49.5 166.833,49.5 164.5,49.5C 164.167,48.1667 163.833,46.8333 163.5,45.5 Z"/></g>
<g><path style="opacity:1" fill="#838383" d="M 70.5,46.5 C 69.9202,48.7488 68.5869,50.4154 66.5,51.5C 67.0798,49.2512 68.4131,47.5846 70.5,46.5 Z"/></g>
<g><path style="opacity:1" fill="#fefefe" d="M 164.5,49.5 C 166.833,49.5 169.167,49.5 171.5,49.5C 171.5,50.1667 171.833,50.5 172.5,50.5C 173.038,52.1172 173.371,53.7839 173.5,55.5C 168.814,60.8581 164.481,66.5247 160.5,72.5C 148.801,82.8655 139.801,95.1988 133.5,109.5C 131.674,111.147 130.34,113.147 129.5,115.5C 126.759,117.975 124.759,120.975 123.5,124.5C 122.395,125.6 121.062,126.267 119.5,126.5C 118.418,125.406 117.752,124.073 117.5,122.5C 118.302,119.551 118.636,116.551 118.5,113.5C 119.338,113.158 119.672,112.492 119.5,111.5C 119.833,108.167 120.167,104.833 120.5,101.5C 126.174,88.1643 133.507,75.831 142.5,64.5C 146.221,62.6465 149.554,60.3131 152.5,57.5C 156.025,56.2411 159.025,54.2411 161.5,51.5C 163.027,51.573 164.027,50.9063 164.5,49.5 Z"/></g>
<g><path style="opacity:1" fill="#464c4f" d="M 164.5,49.5 C 164.027,50.9063 163.027,51.573 161.5,51.5C 161.973,50.0937 162.973,49.427 164.5,49.5 Z"/></g>
<g><path style="opacity:1" fill="#2a353c" d="M 187.5,48.5 C 189.262,49.2623 190.262,50.5956 190.5,52.5C 188.738,51.7377 187.738,50.4044 187.5,48.5 Z"/></g>
<g><path style="opacity:1" fill="#474747" d="M 31.5,48.5 C 30.9202,50.7488 29.5869,52.4154 27.5,53.5C 28.0798,51.2512 29.4131,49.5846 31.5,48.5 Z"/></g>
<g><path style="opacity:1" fill="#222527" d="M 172.5,50.5 C 174.195,52.3437 176.195,53.6771 178.5,54.5C 176.708,54.366 175.042,54.6993 173.5,55.5C 173.371,53.7839 173.038,52.1172 172.5,50.5 Z"/></g>
<g><path style="opacity:1" fill="#171b1e" d="M 190.5,52.5 C 191.906,52.9731 192.573,53.9731 192.5,55.5C 191.094,55.0269 190.427,54.0269 190.5,52.5 Z"/></g>
<g><path style="opacity:1" fill="#353535" d="M 27.5,53.5 C 27.573,55.0269 26.9063,56.0269 25.5,56.5C 25.427,54.9731 26.0937,53.9731 27.5,53.5 Z"/></g>
<g><path style="opacity:1" fill="#46535b" d="M 131.5,48.5 C 131.461,49.5832 131.127,50.5832 130.5,51.5C 130.957,52.2975 131.624,52.6309 132.5,52.5C 131.109,54.8903 129.109,56.5569 126.5,57.5C 127.41,54.0078 129.076,51.0078 131.5,48.5 Z"/></g>
<g><path style="opacity:1" fill="#7da4ba" d="M 178.5,54.5 C 179.492,54.3284 180.158,54.6618 180.5,55.5C 181.63,57.3146 182.296,59.3146 182.5,61.5C 175.484,65.6745 168.151,69.3412 160.5,72.5C 164.481,66.5247 168.814,60.8581 173.5,55.5C 175.042,54.6993 176.708,54.366 178.5,54.5 Z"/></g>
<g><path style="opacity:1" fill="#667d8a" d="M 148.5,54.5 C 148.5,55.5 148.5,56.5 148.5,57.5C 149.833,57.5 151.167,57.5 152.5,57.5C 149.554,60.3131 146.221,62.6465 142.5,64.5C 144,60.827 146,57.4937 148.5,54.5 Z"/></g>
<g><path style="opacity:1" fill="#191c1e" d="M 192.5,55.5 C 193.906,55.9731 194.573,56.9731 194.5,58.5C 193.094,58.0269 192.427,57.0269 192.5,55.5 Z"/></g>
<g><path style="opacity:1" fill="#747474" d="M 104.5,59.5 C 104.461,58.2438 104.961,57.2438 106,56.5C 106.585,57.9976 106.085,58.9976 104.5,59.5 Z"/></g>
<g><path style="opacity:1" fill="#3e3e3e" d="M 24.5,58.5 C 24.573,60.0269 23.9063,61.0269 22.5,61.5C 22.427,59.9731 23.0937,58.9731 24.5,58.5 Z"/></g>
<g><path style="opacity:1" fill="#1a262c" d="M 180.5,55.5 C 182.515,57.2195 184.181,59.2195 185.5,61.5C 184.5,61.5 183.5,61.5 182.5,61.5C 182.296,59.3146 181.63,57.3146 180.5,55.5 Z"/></g>
<g><path style="opacity:1" fill="#767676" d="M 104.5,59.5 C 104.539,60.7562 104.039,61.7562 103,62.5C 102.415,61.0024 102.915,60.0024 104.5,59.5 Z"/></g>
<g><path style="opacity:1" fill="#f4f4f3" d="M 182.5,61.5 C 183.5,61.5 184.5,61.5 185.5,61.5C 186.29,62.4013 187.29,63.0679 188.5,63.5C 188.5,64.8333 188.5,66.1667 188.5,67.5C 185.152,70.8514 182.152,74.5181 179.5,78.5C 177.367,80.0905 175.701,82.0905 174.5,84.5C 174.5,85.1667 174.167,85.5 173.5,85.5C 171.251,86.0798 169.585,87.4131 168.5,89.5C 160.368,98.6228 153.034,108.29 146.5,118.5C 144.782,120.223 143.449,122.223 142.5,124.5C 139.112,127.597 136.445,131.264 134.5,135.5C 133.5,135.5 132.5,135.5 131.5,135.5C 129.832,133.521 129.166,131.188 129.5,128.5C 130.632,124.981 131.632,121.314 132.5,117.5C 133.092,114.873 133.425,112.206 133.5,109.5C 139.801,95.1988 148.801,82.8655 160.5,72.5C 168.151,69.3412 175.484,65.6745 182.5,61.5 Z"/></g>
<g><path style="opacity:1" fill="#272c2f" d="M 194.5,58.5 C 197.54,61.9136 199.54,65.9136 200.5,70.5C 197.992,66.8178 195.992,62.8178 194.5,58.5 Z"/></g>
<g><path style="opacity:1" fill="#1a1c1e" d="M 188.5,63.5 C 189.186,64.8484 190.186,66.015 191.5,67C 190.552,67.4828 189.552,67.6495 188.5,67.5C 188.5,66.1667 188.5,64.8333 188.5,63.5 Z"/></g>
<g><path style="opacity:1" fill="#282a2a" d="M 20.5,65.5 C 20.1667,67.5 19.8333,69.5 19.5,71.5C 18.5,72.8333 17.5,74.1667 16.5,75.5C 17.2635,71.8632 18.5968,68.5299 20.5,65.5 Z"/></g>
<g><path style="opacity:1" fill="#556d7b" d="M 36.5,58.5 C 36.0719,61.7846 35.0719,64.7846 33.5,67.5C 33.5,66.5 33.5,65.5 33.5,64.5C 32.448,64.3505 31.448,64.5172 30.5,65C 27.8991,68.1117 24.8991,70.6117 21.5,72.5C 25.8714,67.1275 30.8714,62.4608 36.5,58.5 Z"/></g>
<g><path style="opacity:1" fill="#282b2c" d="M 200.5,70.5 C 201.931,71.7804 202.598,73.4471 202.5,75.5C 201.069,74.2196 200.402,72.5529 200.5,70.5 Z"/></g>
<g><path style="opacity:1" fill="#50565b" d="M 32.5,70.5 C 32.2444,73.5979 31.5778,76.5979 30.5,79.5C 29.9033,79.2648 29.5699,78.7648 29.5,78C 30.2333,75.2804 31.2333,72.7804 32.5,70.5 Z"/></g>
<g><path style="opacity:1" fill="#93c5e0" d="M 33.5,67.5 C 33.7373,68.791 33.404,69.791 32.5,70.5C 31.2333,72.7804 30.2333,75.2804 29.5,78C 29.5699,78.7648 29.9033,79.2648 30.5,79.5C 30.5,80.1667 30.1667,80.5 29.5,80.5C 28.609,81.1098 27.609,81.4431 26.5,81.5C 27.6588,82.7403 28.6588,84.0736 29.5,85.5C 30.3382,85.8417 30.6716,86.5084 30.5,87.5C 30.9731,88.9063 31.9731,89.573 33.5,89.5C 34.8484,90.1859 36.015,91.1859 37,92.5C 37.4828,91.552 37.6495,90.552 37.5,89.5C 38.1667,88.1667 39.1667,87.1667 40.5,86.5C 42.5869,85.4154 43.9202,83.7488 44.5,81.5C 45.5,79.8333 46.8333,78.5 48.5,77.5C 49.1174,77.3893 49.6174,77.056 50,76.5C 50.2784,77.4158 50.7784,78.0825 51.5,78.5C 51.6716,79.4916 51.3382,80.1583 50.5,80.5C 48.6236,83.7369 48.2903,87.0702 49.5,90.5C 47.933,94.7176 48.2663,98.7176 50.5,102.5C 53.8918,103.969 57.2251,105.636 60.5,107.5C 60.6107,108.117 60.944,108.617 61.5,109C 63.8098,109.497 66.1432,109.663 68.5,109.5C 69.5,109.833 70.1667,110.5 70.5,111.5C 71.4486,112.152 72.6153,112.486 74,112.5C 75.6811,112.392 76.8478,111.725 77.5,110.5C 79.6643,105.5 82.331,100.833 85.5,96.5C 86.1667,98.8333 86.8333,101.167 87.5,103.5C 87.7947,105.735 87.4614,107.735 86.5,109.5C 86.6495,108.448 86.4828,107.448 86,106.5C 85.5034,108.81 85.3367,111.143 85.5,113.5C 78.8922,113.271 78.3922,113.937 84,115.5C 84.9021,115.257 85.7354,114.923 86.5,114.5C 87.4916,114.328 88.1583,114.662 88.5,115.5C 91.003,116.371 93.6697,117.037 96.5,117.5C 98.6173,119.316 100.951,119.65 103.5,118.5C 105.32,120.448 107.654,121.448 110.5,121.5C 113.144,123.723 116.144,125.389 119.5,126.5C 120.29,127.401 121.29,128.068 122.5,128.5C 125.349,131.084 128.349,133.417 131.5,135.5C 132.5,136.5 133.5,137.5 134.5,138.5C 135.757,141.427 137.757,143.761 140.5,145.5C 141.338,145.842 141.672,146.508 141.5,147.5C 142.75,152.64 143.416,152.64 143.5,147.5C 144.443,144.891 146.11,142.891 148.5,141.5C 150.605,138.598 151.938,138.932 152.5,142.5C 152.072,145.785 151.072,148.785 149.5,151.5C 148.442,152.6 147.608,153.934 147,155.5C 146.189,154.04 145.355,153.707 144.5,154.5C 145.857,156.565 147.19,158.565 148.5,160.5C 148.424,163.197 149.091,165.864 150.5,168.5C 151.817,170.482 151.817,172.482 150.5,174.5C 150.668,176.171 151.335,177.504 152.5,178.5C 151.588,182.131 151.421,185.797 152,189.5C 152.417,190.756 153.25,191.423 154.5,191.5C 154.5,192.167 154.5,192.833 154.5,193.5C 153.566,194.568 153.232,195.901 153.5,197.5C 152.486,198.674 151.153,199.34 149.5,199.5C 147.447,199.402 145.78,200.069 144.5,201.5C 138.046,202.834 132.379,204.501 127.5,206.5C 127.158,207.338 126.492,207.672 125.5,207.5C 118.345,206.915 111.012,206.915 103.5,207.5C 100.167,206.167 96.8333,206.167 93.5,207.5C 92.5084,207.672 91.8417,207.338 91.5,206.5C 86.6293,204.455 80.9627,202.788 74.5,201.5C 73.2196,200.069 71.5529,199.402 69.5,199.5C 65.8487,198.341 62.5154,196.674 59.5,194.5C 59.0269,193.094 58.0269,192.427 56.5,192.5C 56.0269,191.094 55.0269,190.427 53.5,190.5C 53.0269,189.094 52.0269,188.427 50.5,188.5C 49.4154,186.413 47.7488,185.08 45.5,184.5C 44.1667,184.5 43.5,183.833 43.5,182.5C 41.1667,179.5 38.5,176.833 35.5,174.5C 34.5,174.167 33.8333,173.5 33.5,172.5C 32.9202,170.251 31.5869,168.585 29.5,167.5C 29.573,165.973 28.9063,164.973 27.5,164.5C 27.573,162.973 26.9063,161.973 25.5,161.5C 24.9213,158.669 23.588,156.336 21.5,154.5C 20.3517,150.213 18.685,146.213 16.5,142.5C 9.88808,120.129 9.88808,97.7955 16.5,75.5C 17.5,74.1667 18.5,72.8333 19.5,71.5C 20.1667,71.8333 20.8333,72.1667 21.5,72.5C 24.8991,70.6117 27.8991,68.1117 30.5,65C 31.448,64.5172 32.448,64.3505 33.5,64.5C 33.5,65.5 33.5,66.5 33.5,67.5 Z"/></g>
<g><path style="opacity:1" fill="#353b3e" d="M 51.5,73.5 C 51.5,75.1667 51.5,76.8333 51.5,78.5C 50.7784,78.0825 50.2784,77.4158 50,76.5C 49.6174,77.056 49.1174,77.3893 48.5,77.5C 48.7376,75.5956 49.7376,74.2623 51.5,73.5 Z"/></g>
<g><path style="opacity:1" fill="#2c3a42" d="M 26.5,81.5 C 23.9986,81.1744 22.8319,79.8411 23,77.5C 24.3756,78.7051 25.5423,80.0384 26.5,81.5 Z"/></g>
<g><path style="opacity:1" fill="#898989" d="M 70.5,84.5 C 71.5107,80.1438 73.3441,76.1438 76,72.5C 75.0004,76.8357 73.1671,80.8357 70.5,84.5 Z"/></g>
<g><path style="opacity:1" fill="#23292d" d="M 29.5,80.5 C 29.5,82.1667 29.5,83.8333 29.5,85.5C 28.6588,84.0736 27.6588,82.7403 26.5,81.5C 27.609,81.4431 28.609,81.1098 29.5,80.5 Z"/></g>
<g><path style="opacity:1" fill="#596064" d="M 199.5,77.5 C 191.115,79.6281 182.782,81.9614 174.5,84.5C 175.701,82.0905 177.367,80.0905 179.5,78.5C 179.489,80.0174 178.823,81.1841 177.5,82C 183.187,80.7751 188.853,79.1084 194.5,77C 195.516,76.4806 196.182,75.6473 196.5,74.5C 195.957,73.1362 195.79,71.8029 196,70.5C 196.901,73.0118 198.068,75.3451 199.5,77.5 Z"/></g>
<g><path style="opacity:1" fill="#4a5962" d="M 44.5,81.5 C 43.9202,83.7488 42.5869,85.4154 40.5,86.5C 41.0798,84.2512 42.4131,82.5846 44.5,81.5 Z"/></g>
<g><path style="opacity:1" fill="#8fc0da" d="M 200.5,83.5 C 202.582,83.6243 204.082,84.6243 205,86.5C 205.311,88.556 205.811,90.556 206.5,92.5C 205.398,93.1757 204.398,93.8423 203.5,94.5C 200.848,94.4095 198.515,95.0762 196.5,96.5C 195.432,97.4345 194.099,97.7678 192.5,97.5C 191.448,97.6495 190.448,97.4828 189.5,97C 190.252,96.3292 190.586,95.4959 190.5,94.5C 190.5,93.8333 190.833,93.5 191.5,93.5C 193.914,92.0892 195.581,90.0892 196.5,87.5C 197.5,85.8333 198.833,84.5 200.5,83.5 Z"/></g>
<g><path style="opacity:1" fill="#575e63" d="M 50.5,80.5 C 50.3841,83.8599 50.0508,87.1933 49.5,90.5C 48.2903,87.0702 48.6236,83.7369 50.5,80.5 Z"/></g>
<g><path style="opacity:1" fill="#4a4c4e" d="M 30.5,87.5 C 32.0269,87.427 33.0269,88.0937 33.5,89.5C 31.9731,89.573 30.9731,88.9063 30.5,87.5 Z"/></g>
<g><path style="opacity:1" fill="#909090" d="M 173.5,85.5 C 172.415,87.5869 170.749,88.9202 168.5,89.5C 169.585,87.4131 171.251,86.0798 173.5,85.5 Z"/></g>
<g><path style="opacity:1" fill="#171a1c" d="M 33.5,89.5 C 34.8333,89.5 36.1667,89.5 37.5,89.5C 37.6495,90.552 37.4828,91.552 37,92.5C 36.015,91.1859 34.8484,90.1859 33.5,89.5 Z"/></g>
<g><path style="opacity:1" fill="#4a5861" d="M 196.5,87.5 C 195.581,90.0892 193.914,92.0892 191.5,93.5C 192.419,90.9108 194.086,88.9108 196.5,87.5 Z"/></g>
<g><path style="opacity:1" fill="#8ab6ce" d="M 67.5,89.5 C 68.1667,93.1667 68.8333,96.8333 69.5,100.5C 69.7678,102.099 69.4345,103.432 68.5,104.5C 67.5655,105.568 67.2322,106.901 67.5,108.5C 65.0971,108.552 62.7638,108.219 60.5,107.5C 59.0582,106.18 58.3915,104.514 58.5,102.5C 61.1173,97.8859 64.1173,93.5526 67.5,89.5 Z"/></g>
<g><path style="opacity:1" fill="#f9f9f9" d="M 199.5,77.5 C 199.328,78.4916 199.662,79.1583 200.5,79.5C 200.5,80.8333 200.5,82.1667 200.5,83.5C 198.833,84.5 197.5,85.8333 196.5,87.5C 194.086,88.9108 192.419,90.9108 191.5,93.5C 190.833,93.5 190.5,93.8333 190.5,94.5C 183.775,99.6697 184.442,100.67 192.5,97.5C 194.099,97.7678 195.432,97.4345 196.5,96.5C 199.152,96.5905 201.485,95.9238 203.5,94.5C 205.124,94.3601 206.29,95.0267 207,96.5C 207.884,100.433 207.384,104.099 205.5,107.5C 202.8,109.234 200.8,111.568 199.5,114.5C 198.038,115.458 196.705,116.624 195.5,118C 198.482,118.498 201.482,118.665 204.5,118.5C 205.209,119.404 206.209,119.737 207.5,119.5C 206.35,125.109 205.35,130.776 204.5,136.5C 203.814,137.848 202.814,139.015 201.5,140C 202.138,141.707 202.138,143.54 201.5,145.5C 199.375,148.088 198.042,151.088 197.5,154.5C 195.412,156.336 194.079,158.669 193.5,161.5C 192.094,161.973 191.427,162.973 191.5,164.5C 189.738,165.262 188.738,166.596 188.5,168.5C 186.738,169.262 185.738,170.596 185.5,172.5C 180.833,176.5 176.5,180.833 172.5,185.5C 170.596,185.738 169.262,186.738 168.5,188.5C 166.147,189.34 164.147,190.674 162.5,192.5C 160.973,192.427 159.973,193.094 159.5,194.5C 159.158,195.338 158.492,195.672 157.5,195.5C 155.821,195.715 154.821,195.048 154.5,193.5C 154.5,192.833 154.5,192.167 154.5,191.5C 154.5,191.167 154.5,190.833 154.5,190.5C 157.227,186.423 159.561,182.09 161.5,177.5C 164.484,173.86 166.651,169.86 168,165.5C 165.295,168.036 162.795,170.703 160.5,173.5C 158.167,175.167 156.167,177.167 154.5,179.5C 153.833,179.167 153.167,178.833 152.5,178.5C 152.342,175.098 152.676,171.764 153.5,168.5C 155.204,165.744 156.537,162.744 157.5,159.5C 160.23,154.711 162.396,149.711 164,144.5C 160.287,148.708 156.787,153.041 153.5,157.5C 152.5,157.833 151.833,158.5 151.5,159.5C 150.609,160.11 149.609,160.443 148.5,160.5C 148.508,157.455 148.841,154.455 149.5,151.5C 151.072,148.785 152.072,145.785 152.5,142.5C 154.099,141.201 154.599,139.535 154,137.5C 152.913,139.932 152.413,139.598 152.5,136.5C 150.413,137.585 149.08,139.251 148.5,141.5C 146.11,142.891 144.443,144.891 143.5,147.5C 142.833,147.5 142.167,147.5 141.5,147.5C 141.672,146.508 141.338,145.842 140.5,145.5C 141.992,139.2 143.325,132.866 144.5,126.5C 145.768,124.095 146.435,121.428 146.5,118.5C 153.034,108.29 160.368,98.6228 168.5,89.5C 170.749,88.9202 172.415,87.5869 173.5,85.5C 174.167,85.5 174.5,85.1667 174.5,84.5C 182.782,81.9614 191.115,79.6281 199.5,77.5 Z"/></g>
<g><path style="opacity:1" fill="#52595d" d="M 203.5,94.5 C 201.485,95.9238 199.152,96.5905 196.5,96.5C 198.515,95.0762 200.848,94.4095 203.5,94.5 Z"/></g>
<g><path style="opacity:1" fill="#526973" d="M 190.5,94.5 C 190.586,95.4959 190.252,96.3292 189.5,97C 190.448,97.4828 191.448,97.6495 192.5,97.5C 184.442,100.67 183.775,99.6697 190.5,94.5 Z"/></g>
<g><path style="opacity:1" fill="#1d262a" d="M 40.5,97.5 C 40.56,96.9569 40.8933,96.6236 41.5,96.5C 43.444,97.1892 45.444,97.6892 47.5,98C 45.0709,98.7033 42.7375,98.5366 40.5,97.5 Z"/></g>
<g><path style="opacity:1" fill="#3a4044" d="M 70.5,84.5 C 69.7255,89.7968 69.3921,95.1301 69.5,100.5C 68.8333,96.8333 68.1667,93.1667 67.5,89.5C 68.2632,87.6316 69.2632,85.9649 70.5,84.5 Z"/></g>
<g><path style="opacity:1" fill="#474443" d="M 87.5,103.5 C 86.8333,101.167 86.1667,98.8333 85.5,96.5C 85.9867,95.5266 86.4867,94.5266 87,93.5C 87.4983,96.8168 87.665,100.15 87.5,103.5 Z"/></g>
<g><path style="opacity:1" fill="#3d4144" d="M 50.5,102.5 C 53.204,103.714 55.8707,103.714 58.5,102.5C 58.3915,104.514 59.0582,106.18 60.5,107.5C 57.2251,105.636 53.8918,103.969 50.5,102.5 Z"/></g>
<g><path style="opacity:1" fill="#3d4950" d="M 105.5,96.5 C 104.947,101.482 104.613,106.482 104.5,111.5C 103.833,108.5 103.167,105.5 102.5,102.5C 102.992,100.181 103.992,98.1815 105.5,96.5 Z"/></g>
<g><path style="opacity:1" fill="#8bb8d0" d="M 102.5,102.5 C 103.167,105.5 103.833,108.5 104.5,111.5C 104.737,112.791 104.404,113.791 103.5,114.5C 102.596,115.209 102.263,116.209 102.5,117.5C 100.5,117.5 98.5,117.5 96.5,117.5C 95.438,115.901 95.438,114.234 96.5,112.5C 98.0002,108.827 100,105.494 102.5,102.5 Z"/></g>
<g><path style="opacity:1" fill="#45535c" d="M 120.5,101.5 C 120.167,104.833 119.833,108.167 119.5,111.5C 118.71,110.391 118.21,109.058 118,107.5C 117.617,108.056 117.117,108.389 116.5,108.5C 117.584,105.996 118.917,103.663 120.5,101.5 Z"/></g>
<g><path style="opacity:1" fill="#202223" d="M 202.5,75.5 C 207.232,86.0493 209.232,97.2159 208.5,109C 209.201,118.602 207.868,127.768 204.5,136.5C 205.35,130.776 206.35,125.109 207.5,119.5C 207.666,115.154 207.499,110.821 207,106.5C 206.617,107.056 206.117,107.389 205.5,107.5C 207.384,104.099 207.884,100.433 207,96.5C 206.29,95.0267 205.124,94.3601 203.5,94.5C 204.398,93.8423 205.398,93.1757 206.5,92.5C 205.811,90.556 205.311,88.556 205,86.5C 204.082,84.6243 202.582,83.6243 200.5,83.5C 200.5,82.1667 200.5,80.8333 200.5,79.5C 201.337,79.6021 202.004,80.6021 202.5,82.5C 202.833,82 203.167,81.5 203.5,81C 202.767,79.2341 202.433,77.4008 202.5,75.5 Z"/></g>
<g><path style="opacity:1" fill="#9a9a9a" d="M 177.5,104.5 C 178.239,104.369 178.906,104.536 179.5,105C 177.273,107.935 174.606,109.935 171.5,111C 173.706,108.963 175.706,106.797 177.5,104.5 Z"/></g>
<g><path style="opacity:1" fill="#26343c" d="M 68.5,104.5 C 68.5,106.167 68.5,107.833 68.5,109.5C 66.1432,109.663 63.8098,109.497 61.5,109C 60.944,108.617 60.6107,108.117 60.5,107.5C 62.7638,108.219 65.0971,108.552 67.5,108.5C 67.2322,106.901 67.5655,105.568 68.5,104.5 Z"/></g>
<g><path style="opacity:1" fill="#8dbbd4" d="M 207.5,119.5 C 206.209,119.737 205.209,119.404 204.5,118.5C 202.708,117.691 200.708,117.191 198.5,117C 199.252,116.329 199.586,115.496 199.5,114.5C 200.8,111.568 202.8,109.234 205.5,107.5C 206.117,107.389 206.617,107.056 207,106.5C 207.499,110.821 207.666,115.154 207.5,119.5 Z"/></g>
<g><path style="opacity:1" fill="#4b4949" d="M 77.5,110.5 C 76.8478,111.725 75.6811,112.392 74,112.5C 72.6153,112.486 71.4486,112.152 70.5,111.5C 72.9496,111.702 75.283,111.369 77.5,110.5 Z"/></g>
<g><path style="opacity:1" fill="#8cbbd4" d="M 119.5,111.5 C 119.672,112.492 119.338,113.158 118.5,113.5C 117.513,116.713 116.513,120.047 115.5,123.5C 113.925,122.544 112.258,121.877 110.5,121.5C 110.833,120.167 111.167,118.833 111.5,117.5C 112.41,114.008 114.076,111.008 116.5,108.5C 117.117,108.389 117.617,108.056 118,107.5C 118.21,109.058 118.71,110.391 119.5,111.5 Z"/></g>
<g><path style="opacity:1" fill="#435c6a" d="M 86.5,109.5 C 86.5,111.167 86.5,112.833 86.5,114.5C 85.7354,114.923 84.9021,115.257 84,115.5C 78.3922,113.937 78.8922,113.271 85.5,113.5C 85.3367,111.143 85.5034,108.81 86,106.5C 86.4828,107.448 86.6495,108.448 86.5,109.5 Z"/></g>
<g><path style="opacity:1" fill="#404f58" d="M 133.5,109.5 C 133.425,112.206 133.092,114.873 132.5,117.5C 131.732,116.737 131.232,115.737 131,114.5C 130.617,115.056 130.117,115.389 129.5,115.5C 130.34,113.147 131.674,111.147 133.5,109.5 Z"/></g>
<g><path style="opacity:1" fill="#323b41" d="M 96.5,112.5 C 95.438,114.234 95.438,115.901 96.5,117.5C 93.6697,117.037 91.003,116.371 88.5,115.5C 91.776,115.856 94.4427,114.856 96.5,112.5 Z"/></g>
<g><path style="opacity:1" fill="#3c525d" d="M 103.5,114.5 C 103.5,115.833 103.5,117.167 103.5,118.5C 100.951,119.65 98.6173,119.316 96.5,117.5C 98.5,117.5 100.5,117.5 102.5,117.5C 102.263,116.209 102.596,115.209 103.5,114.5 Z"/></g>
<g><path style="opacity:1" fill="#585e61" d="M 199.5,114.5 C 199.586,115.496 199.252,116.329 198.5,117C 200.708,117.191 202.708,117.691 204.5,118.5C 201.482,118.665 198.482,118.498 195.5,118C 196.705,116.624 198.038,115.458 199.5,114.5 Z"/></g>
<g><path style="opacity:1" fill="#84abc0" d="M 132.5,117.5 C 131.632,121.314 130.632,124.981 129.5,128.5C 128.583,128.494 128.083,129.494 128,131.5C 126.259,130.242 124.426,129.242 122.5,128.5C 122.833,127.167 123.167,125.833 123.5,124.5C 124.759,120.975 126.759,117.975 129.5,115.5C 130.117,115.389 130.617,115.056 131,114.5C 131.232,115.737 131.732,116.737 132.5,117.5 Z"/></g>
<g><path style="opacity:1" fill="#556168" d="M 111.5,117.5 C 111.167,118.833 110.833,120.167 110.5,121.5C 107.654,121.448 105.32,120.448 103.5,118.5C 106.455,120.09 109.122,119.757 111.5,117.5 Z"/></g>
<g><path style="opacity:1" fill="#3b474d" d="M 146.5,118.5 C 146.435,121.428 145.768,124.095 144.5,126.5C 144.869,124.007 144.203,123.34 142.5,124.5C 143.449,122.223 144.782,120.223 146.5,118.5 Z"/></g>
<g><path style="opacity:1" fill="#262b2e" d="M 16.5,75.5 C 9.88808,97.7955 9.88808,120.129 16.5,142.5C 11.8901,131.938 9.89013,120.771 10.5,109C 9.76799,97.2159 11.768,86.0493 16.5,75.5 Z"/></g>
<g><path style="opacity:1" fill="#3a444b" d="M 118.5,113.5 C 118.636,116.551 118.302,119.551 117.5,122.5C 117.752,124.073 118.418,125.406 119.5,126.5C 116.144,125.389 113.144,123.723 110.5,121.5C 112.258,121.877 113.925,122.544 115.5,123.5C 116.513,120.047 117.513,116.713 118.5,113.5 Z"/></g>
<g><path style="opacity:1" fill="#737373" d="M 186.5,122.5 C 188.975,122.747 188.975,123.413 186.5,124.5C 185.537,124.03 185.537,123.363 186.5,122.5 Z"/></g>
<g><path style="opacity:1" fill="#2b353b" d="M 123.5,124.5 C 123.167,125.833 122.833,127.167 122.5,128.5C 121.29,128.068 120.29,127.401 119.5,126.5C 121.062,126.267 122.395,125.6 123.5,124.5 Z"/></g>
<g><path style="opacity:1" fill="#739aae" d="M 144.5,126.5 C 143.325,132.866 141.992,139.2 140.5,145.5C 137.757,143.761 135.757,141.427 134.5,138.5C 134.5,137.5 134.5,136.5 134.5,135.5C 136.445,131.264 139.112,127.597 142.5,124.5C 144.203,123.34 144.869,124.007 144.5,126.5 Z"/></g>
<g><path style="opacity:1" fill="#414e55" d="M 129.5,128.5 C 129.166,131.188 129.832,133.521 131.5,135.5C 128.349,133.417 125.349,131.084 122.5,128.5C 124.426,129.242 126.259,130.242 128,131.5C 128.083,129.494 128.583,128.494 129.5,128.5 Z"/></g>
<g><path style="opacity:1" fill="#909090" d="M 178.5,128.5 C 179.239,128.369 179.906,128.536 180.5,129C 179.234,130.983 177.568,131.983 175.5,132C 176.71,130.961 177.71,129.794 178.5,128.5 Z"/></g>
<g><path style="opacity:1" fill="#3e484f" d="M 152.5,136.5 C 153.031,134.456 154.198,132.789 156,131.5C 156.52,133.289 156.187,134.956 155,136.5C 154.23,135.402 153.397,135.402 152.5,136.5 Z"/></g>
<g><path style="opacity:1" fill="#272828" d="M 131.5,135.5 C 132.5,135.5 133.5,135.5 134.5,135.5C 134.5,136.5 134.5,137.5 134.5,138.5C 133.5,137.5 132.5,136.5 131.5,135.5 Z"/></g>
<g><path style="opacity:1" fill="#53656f" d="M 152.5,136.5 C 152.413,139.598 152.913,139.932 154,137.5C 154.599,139.535 154.099,141.201 152.5,142.5C 151.938,138.932 150.605,138.598 148.5,141.5C 149.08,139.251 150.413,137.585 152.5,136.5 Z"/></g>
<g><path style="opacity:1" fill="#272727" d="M 204.5,136.5 C 204.472,139.916 203.472,142.916 201.5,145.5C 202.138,143.54 202.138,141.707 201.5,140C 202.814,139.015 203.814,137.848 204.5,136.5 Z"/></g>
<g><path style="opacity:1" fill="#838383" d="M 168.5,138.5 C 169.043,138.56 169.376,138.893 169.5,139.5C 164.889,144.618 164.556,144.285 168.5,138.5 Z"/></g>
<g><path style="opacity:1" fill="#272c2f" d="M 16.5,142.5 C 18.685,146.213 20.3517,150.213 21.5,154.5C 18.7633,151.017 17.0966,147.017 16.5,142.5 Z"/></g>
<g><path style="opacity:1" fill="#192024" d="M 141.5,147.5 C 142.167,147.5 142.833,147.5 143.5,147.5C 143.416,152.64 142.75,152.64 141.5,147.5 Z"/></g>
<g><path style="opacity:1" fill="#383838" d="M 201.5,145.5 C 200.958,148.912 199.625,151.912 197.5,154.5C 198.042,151.088 199.375,148.088 201.5,145.5 Z"/></g>
<g><path style="opacity:1" fill="#454f55" d="M 149.5,151.5 C 148.841,154.455 148.508,157.455 148.5,160.5C 147.19,158.565 145.857,156.565 144.5,154.5C 145.355,153.707 146.189,154.04 147,155.5C 147.608,153.934 148.442,152.6 149.5,151.5 Z"/></g>
<g><path style="opacity:1" fill="#668191" d="M 157.5,159.5 C 157.206,156.519 155.872,155.852 153.5,157.5C 156.787,153.041 160.287,148.708 164,144.5C 162.396,149.711 160.23,154.711 157.5,159.5 Z"/></g>
<g><path style="opacity:1" fill="#979797" d="M 179.5,153.5 C 180.239,153.369 180.906,153.536 181.5,154C 180.234,155.983 178.568,156.983 176.5,157C 177.71,155.961 178.71,154.794 179.5,153.5 Z"/></g>
<g><path style="opacity:1" fill="#272b2d" d="M 21.5,154.5 C 23.588,156.336 24.9213,158.669 25.5,161.5C 23.412,159.664 22.0787,157.331 21.5,154.5 Z"/></g>
<g><path style="opacity:1" fill="#2c2c2c" d="M 197.5,154.5 C 196.921,157.331 195.588,159.664 193.5,161.5C 194.079,158.669 195.412,156.336 197.5,154.5 Z"/></g>
<g><path style="opacity:1" fill="#85afc5" d="M 157.5,159.5 C 156.537,162.744 155.204,165.744 153.5,168.5C 152.5,169.833 151.5,169.833 150.5,168.5C 150.368,165.43 150.701,162.43 151.5,159.5C 151.833,158.5 152.5,157.833 153.5,157.5C 155.872,155.852 157.206,156.519 157.5,159.5 Z"/></g>
<g><path style="opacity:1" fill="#1a1c1d" d="M 25.5,161.5 C 26.9063,161.973 27.573,162.973 27.5,164.5C 26.0937,164.027 25.427,163.027 25.5,161.5 Z"/></g>
<g><path style="opacity:1" fill="#40515b" d="M 151.5,159.5 C 150.701,162.43 150.368,165.43 150.5,168.5C 149.091,165.864 148.424,163.197 148.5,160.5C 149.609,160.443 150.609,160.11 151.5,159.5 Z"/></g>
<g><path style="opacity:1" fill="#1a1a1a" d="M 193.5,161.5 C 193.573,163.027 192.906,164.027 191.5,164.5C 191.427,162.973 192.094,161.973 193.5,161.5 Z"/></g>
<g><path style="opacity:1" fill="#191b1c" d="M 27.5,164.5 C 28.9063,164.973 29.573,165.973 29.5,167.5C 28.0937,167.027 27.427,166.027 27.5,164.5 Z"/></g>
<g><path style="opacity:1" fill="#222222" d="M 191.5,164.5 C 191.262,166.404 190.262,167.738 188.5,168.5C 188.738,166.596 189.738,165.262 191.5,164.5 Z"/></g>
<g><path style="opacity:1" fill="#202020" d="M 188.5,168.5 C 188.262,170.404 187.262,171.738 185.5,172.5C 185.738,170.596 186.738,169.262 188.5,168.5 Z"/></g>
<g><path style="opacity:1" fill="#272829" d="M 29.5,167.5 C 31.5869,168.585 32.9202,170.251 33.5,172.5C 31.4131,171.415 30.0798,169.749 29.5,167.5 Z"/></g>
<g><path style="opacity:1" fill="#4e5f69" d="M 161.5,177.5 C 161.539,176.417 161.873,175.417 162.5,174.5C 162.043,173.702 161.376,173.369 160.5,173.5C 162.795,170.703 165.295,168.036 168,165.5C 166.651,169.86 164.484,173.86 161.5,177.5 Z"/></g>
<g><path style="opacity:1" fill="#696f73" d="M 150.5,168.5 C 151.5,169.833 152.5,169.833 153.5,168.5C 152.676,171.764 152.342,175.098 152.5,178.5C 151.335,177.504 150.668,176.171 150.5,174.5C 151.817,172.482 151.817,170.482 150.5,168.5 Z"/></g>
<g><path style="opacity:1" fill="#2e2d2c" d="M 35.5,174.5 C 38.5,176.833 41.1667,179.5 43.5,182.5C 39.8333,180.833 37.1667,178.167 35.5,174.5 Z"/></g>
<g><path style="opacity:1" fill="#83abc0" d="M 160.5,173.5 C 161.376,173.369 162.043,173.702 162.5,174.5C 161.873,175.417 161.539,176.417 161.5,177.5C 159.561,182.09 157.227,186.423 154.5,190.5C 151.91,186.945 151.91,183.279 154.5,179.5C 156.167,177.167 158.167,175.167 160.5,173.5 Z"/></g>
<g><path style="opacity:1" fill="#474747" d="M 185.5,172.5 C 182.167,177.833 177.833,182.167 172.5,185.5C 176.5,180.833 180.833,176.5 185.5,172.5 Z"/></g>
<g><path style="opacity:1" fill="#1c2327" d="M 152.5,178.5 C 153.167,178.833 153.833,179.167 154.5,179.5C 151.91,183.279 151.91,186.945 154.5,190.5C 154.5,190.833 154.5,191.167 154.5,191.5C 153.25,191.423 152.417,190.756 152,189.5C 151.421,185.797 151.588,182.131 152.5,178.5 Z"/></g>
<g><path style="opacity:1" fill="#202326" d="M 45.5,184.5 C 47.7488,185.08 49.4154,186.413 50.5,188.5C 48.2512,187.92 46.5846,186.587 45.5,184.5 Z"/></g>
<g><path style="opacity:1" fill="#202020" d="M 172.5,185.5 C 171.738,187.262 170.404,188.262 168.5,188.5C 169.262,186.738 170.596,185.738 172.5,185.5 Z"/></g>
<g><path style="opacity:1" fill="#16191b" d="M 50.5,188.5 C 52.0269,188.427 53.0269,189.094 53.5,190.5C 51.9731,190.573 50.9731,189.906 50.5,188.5 Z"/></g>
<g><path style="opacity:1" fill="#1c1c1c" d="M 168.5,188.5 C 167.198,190.822 165.198,192.155 162.5,192.5C 164.147,190.674 166.147,189.34 168.5,188.5 Z"/></g>
<g><path style="opacity:1" fill="#16191c" d="M 53.5,190.5 C 55.0269,190.427 56.0269,191.094 56.5,192.5C 54.9731,192.573 53.9731,191.906 53.5,190.5 Z"/></g>
<g><path style="opacity:1" fill="#202629" d="M 56.5,192.5 C 58.0269,192.427 59.0269,193.094 59.5,194.5C 57.9731,194.573 56.9731,193.906 56.5,192.5 Z"/></g>
<g><path style="opacity:1" fill="#292929" d="M 162.5,192.5 C 162.027,193.906 161.027,194.573 159.5,194.5C 159.973,193.094 160.973,192.427 162.5,192.5 Z"/></g>
<g><path style="opacity:1" fill="#3d4245" d="M 154.5,193.5 C 154.821,195.048 155.821,195.715 157.5,195.5C 156.486,196.674 155.153,197.34 153.5,197.5C 153.232,195.901 153.566,194.568 154.5,193.5 Z"/></g>
<g><path style="opacity:1" fill="#25292b" d="M 69.5,199.5 C 71.5529,199.402 73.2196,200.069 74.5,201.5C 72.4471,201.598 70.7804,200.931 69.5,199.5 Z"/></g>
<g><path style="opacity:1" fill="#242729" d="M 149.5,199.5 C 148.22,200.931 146.553,201.598 144.5,201.5C 145.78,200.069 147.447,199.402 149.5,199.5 Z"/></g>
<g><path style="opacity:1" fill="#26292b" d="M 74.5,201.5 C 80.9627,202.788 86.6293,204.455 91.5,206.5C 85.4197,205.901 79.753,204.234 74.5,201.5 Z"/></g>
<g><path style="opacity:1" fill="#2b2f32" d="M 144.5,201.5 C 139.247,204.234 133.58,205.901 127.5,206.5C 132.379,204.501 138.046,202.834 144.5,201.5 Z"/></g>
<g><path style="opacity:1" fill="#45494d" d="M 93.5,207.5 C 96.8333,206.167 100.167,206.167 103.5,207.5C 102.833,207.5 102.5,207.833 102.5,208.5C 99.5176,208.037 96.5176,207.704 93.5,207.5 Z"/></g>
<g><path style="opacity:1" fill="#333536" d="M 125.5,207.5 C 117.862,208.313 110.196,208.646 102.5,208.5C 102.5,207.833 102.833,207.5 103.5,207.5C 111.012,206.915 118.345,206.915 125.5,207.5 Z"/></g>
</svg>
