<?xml version="1.0" encoding="UTF-8"?>
<!DOCTYPE svg PUBLIC "-//W3C//DTD SVG 1.1//EN" "http://www.w3.org/Graphics/SVG/1.1/DTD/svg11.dtd">
<svg xmlns="http://www.w3.org/2000/svg" version="1.1" width="100px" height="100px" style="shape-rendering:geometricPrecision; text-rendering:geometricPrecision; image-rendering:optimizeQuality; fill-rule:evenodd; clip-rule:evenodd" xmlns:xlink="http://www.w3.org/1999/xlink">
<g><path style="opacity:1" fill="#fdfcfd" d="M -0.5,-0.5 C 32.8333,-0.5 66.1667,-0.5 99.5,-0.5C 99.5,32.8333 99.5,66.1667 99.5,99.5C 66.1667,99.5 32.8333,99.5 -0.5,99.5C -0.5,66.1667 -0.5,32.8333 -0.5,-0.5 Z"/></g>
<g><path style="opacity:1" fill="#c55b6e" d="M 55.5,44.5 C 52.4752,44.5089 49.3085,44.8423 46,45.5C 35.9306,42.7148 31.264,36.0482 32,25.5C 37.954,11.5153 47.454,8.34864 60.5,16C 66.6592,21.3115 68.1592,27.8115 65,35.5C 63.2565,40.0787 60.0898,43.0787 55.5,44.5 Z"/></g>
<g><path style="opacity:1" fill="#bcb2b3" d="M 56.5,39.5 C 51.1852,42.4618 46.1852,42.1284 41.5,38.5C 35.6035,30.9656 36.2701,24.1323 43.5,18C 51.2067,15.2156 57.04,17.3823 61,24.5C 62.6213,30.5248 61.1213,35.5248 56.5,39.5 Z"/></g>
<g><path style="opacity:1" fill="#a06c76" d="M 57.5,29.5 C 57.5,28.1667 57.5,26.8333 57.5,25.5C 54.1667,25.5 50.8333,25.5 47.5,25.5C 47.5,26.5 47.5,27.5 47.5,28.5C 49.5695,28.5514 51.4029,27.8847 53,26.5C 54.1685,27.0085 55.0019,27.8419 55.5,29C 51.8333,29.6667 48.1667,29.6667 44.5,29C 43.1667,28 43.1667,27 44.5,26C 43.552,25.5172 42.552,25.3505 41.5,25.5C 41.5,26.8333 41.5,28.1667 41.5,29.5C 40.5489,28.0813 40.2155,26.4147 40.5,24.5C 46.5,24.5 52.5,24.5 58.5,24.5C 58.7845,26.4147 58.4511,28.0813 57.5,29.5 Z"/></g>
<g><path style="opacity:1" fill="#bd4b5c" d="M 57.5,29.5 C 54.9455,41.0646 49.7788,42.7313 42,34.5C 41.5065,32.8659 41.3398,31.1992 41.5,29.5C 41.5,28.1667 41.5,26.8333 41.5,25.5C 42.552,25.3505 43.552,25.5172 44.5,26C 43.1667,27 43.1667,28 44.5,29C 48.1667,29.6667 51.8333,29.6667 55.5,29C 55.0019,27.8419 54.1685,27.0085 53,26.5C 51.4029,27.8847 49.5695,28.5514 47.5,28.5C 47.5,27.5 47.5,26.5 47.5,25.5C 50.8333,25.5 54.1667,25.5 57.5,25.5C 57.5,26.8333 57.5,28.1667 57.5,29.5 Z"/></g>
<g><path style="opacity:1" fill="#ac9294" d="M 47.5,32.5 C 48.209,31.596 49.209,31.2627 50.5,31.5C 51.0138,33.5116 51.1805,35.5116 51,37.5C 49.9887,38.3366 48.8221,38.67 47.5,38.5C 47.178,36.2776 47.8446,34.4443 49.5,33C 48.9056,32.5357 48.2389,32.369 47.5,32.5 Z"/></g>
<g><path style="opacity:1" fill="#c0223c" d="M 41.5,38.5 C 46.1852,42.1284 51.1852,42.4618 56.5,39.5C 58.0481,39.8212 58.7148,40.8212 58.5,42.5C 56.8212,42.2852 55.8212,42.9519 55.5,44.5C 51.8223,41.995 48.1557,41.995 44.5,44.5C 42.9991,43.2485 41.3325,42.2485 39.5,41.5C 39.9424,40.2613 40.6091,39.2613 41.5,38.5 Z"/></g>
<g><path style="opacity:1" fill="#c2233a" d="M 40.5,71.5 C 40.5,72.5 40.5,73.5 40.5,74.5C 40.5,76.1667 40.5,77.8333 40.5,79.5C 39.325,79.719 38.325,79.3857 37.5,78.5C 35.7173,73.1072 33.3839,68.1072 30.5,63.5C 30.9926,61.1944 31.3259,58.861 31.5,56.5C 31.7058,54.4508 32.5391,54.1175 34,55.5C 35.8998,61.0537 38.0664,66.387 40.5,71.5 Z"/></g>
<g><path style="opacity:1" fill="#d00d30" d="M 79.5,56.5 C 78.8333,56.5 78.5,56.8333 78.5,57.5C 76.5367,64.4238 75.8701,71.7572 76.5,79.5C 75.8333,79.5 75.1667,79.5 74.5,79.5C 74.5,71.5 74.5,63.5 74.5,55.5C 76.4147,55.2155 78.0813,55.5489 79.5,56.5 Z"/></g>
<g><path style="opacity:1" fill="#b12f41" d="M 78.5,57.5 C 78.5,64.1667 78.5,70.8333 78.5,77.5C 79.675,77.281 80.675,77.6143 81.5,78.5C 79.9547,79.4519 78.288,79.7852 76.5,79.5C 75.8701,71.7572 76.5367,64.4238 78.5,57.5 Z"/></g>
<g><path style="opacity:1" fill="#be273c" d="M 25.5,70.5 C 26.5511,71.2223 27.2178,72.2223 27.5,73.5C 26.8505,75.4352 26.5172,77.4352 26.5,79.5C 25.325,79.719 24.325,79.3857 23.5,78.5C 21.0536,71.9366 18.8869,65.2699 17,58.5C 15.9264,57.3816 14.7598,56.3816 13.5,55.5C 17.1667,54.1667 20.8333,54.1667 24.5,55.5C 23.5853,56.3279 22.9186,57.3279 22.5,58.5C 23.251,62.5963 24.251,66.5963 25.5,70.5 Z"/></g>
<g><path style="opacity:1" fill="#c42236" d="M 57.5,76.5 C 57.9528,77.4584 58.6195,78.2917 59.5,79C 56.1177,79.8236 52.7844,79.657 49.5,78.5C 50.325,77.6143 51.325,77.281 52.5,77.5C 52.5,70.8333 52.5,64.1667 52.5,57.5C 53.1834,55.8235 54.5168,55.1568 56.5,55.5C 56.1755,62.6866 56.5088,69.6866 57.5,76.5 Z"/></g>
<g><path style="opacity:1" fill="#b74658" d="M 31.5,56.5 C 31.3259,58.861 30.9926,61.1944 30.5,63.5C 29.8699,67.0477 28.8699,70.3811 27.5,73.5C 27.2178,72.2223 26.5511,71.2223 25.5,70.5C 27.6948,65.9154 29.6948,61.2487 31.5,56.5 Z"/></g>
<g><path style="opacity:1" fill="#bc2f45" d="M 57.5,76.5 C 56.5088,69.6866 56.1755,62.6866 56.5,55.5C 54.5168,55.1568 53.1834,55.8235 52.5,57.5C 50.0642,55.9829 47.8976,56.3162 46,58.5C 44.632,64.1072 42.7987,69.4405 40.5,74.5C 40.5,73.5 40.5,72.5 40.5,71.5C 41.1773,67.1087 42.1773,62.7754 43.5,58.5C 43.0814,57.3279 42.4147,56.3279 41.5,55.5C 45.3333,55.1667 49.1667,54.8333 53,54.5C 57.6122,54.3932 62.1122,54.8932 66.5,56C 70.8264,61.0444 70.1598,65.3778 64.5,69C 62.1902,69.4966 59.8568,69.6633 57.5,69.5C 57.5,71.8333 57.5,74.1667 57.5,76.5 Z"/></g>
<g><path style="opacity:1" fill="#f8f6f8" d="M 57.5,56.5 C 61.8206,55.8244 63.8206,57.6577 63.5,62C 63.8206,66.3423 61.8206,68.1756 57.5,67.5C 57.5,63.8333 57.5,60.1667 57.5,56.5 Z"/></g>
<g><path style="opacity:1" fill="#af3046" d="M 79.5,56.5 C 78.0813,55.5489 76.4147,55.2155 74.5,55.5C 74.5,63.5 74.5,71.5 74.5,79.5C 73.0222,79.762 71.6888,79.4287 70.5,78.5C 71.325,77.6143 72.325,77.281 73.5,77.5C 73.5,70.5 73.5,63.5 73.5,56.5C 72.325,56.719 71.325,56.3857 70.5,55.5C 74.1667,54.1667 77.8333,54.1667 81.5,55.5C 81.0431,56.2975 80.3764,56.6309 79.5,56.5 Z"/></g>
</svg>
